<?xml version="1.0" encoding="UTF-8"?>
<svg version="1.1" xmlns="http://www.w3.org/2000/svg" width="40" height="36">
<path d="M0 0 C13.2 0 26.4 0 40 0 C40 11.88 40 23.76 40 36 C26.8 36 13.6 36 0 36 C0 24.12 0 12.24 0 0 Z " fill="#27231F" transform="translate(0,0)"/>
<path d="M0 0 C13.2 0 26.4 0 40 0 C40 11.88 40 23.76 40 36 C26.8 36 13.6 36 0 36 C0 24.12 0 12.24 0 0 Z M10.9375 4.0625 C10.00067383 4.47532227 10.00067383 4.47532227 9.04492188 4.89648438 C5.56852038 6.58459823 3.60862868 8.12365101 2.0546875 11.6015625 C0.82283525 15.41973307 0.82283525 15.41973307 2 19 C2.66 19.66 3.32 20.32 4 21 C4.125 24.625 4.125 24.625 4 28 C6.19912496 29.20801248 8.40661819 30.39081947 10.625 31.5625 C11.24246094 31.90474609 11.85992187 32.24699219 12.49609375 32.59960938 C16.81116084 34.84798644 19.34740327 35.42026637 24 34 C26.32028033 33.04598952 28.61294212 32.02236449 30.875 30.9375 C32.02742188 30.38964844 33.17984375 29.84179688 34.3671875 29.27734375 C35.67042969 28.64505859 35.67042969 28.64505859 37 28 C37 25.69 37 23.38 37 21 C36.34 21 35.68 21 35 21 C34.95552734 22.38058594 34.95552734 22.38058594 34.91015625 23.7890625 C34 27 34 27 31.05859375 28.8984375 C29.86363281 29.38570312 28.66867188 29.87296875 27.4375 30.375 C25.64119141 31.12910156 25.64119141 31.12910156 23.80859375 31.8984375 C22.88175781 32.26195313 21.95492188 32.62546875 21 33 C21.33 30.36 21.66 27.72 22 25 C22.78375 24.938125 23.5675 24.87625 24.375 24.8125 C29.25010398 23.71980428 33.9685619 22.00649621 38 19 C39.38122112 15.76431068 39.09116987 14.27883081 37.99609375 10.9296875 C35.5644449 7.36073126 32.88756868 5.86187329 29.0625 4.125 C28.44181641 3.81820313 27.82113281 3.51140625 27.18164062 3.1953125 C20.82500914 0.16254263 17.00443589 1.10778252 10.9375 4.0625 Z " fill="#F2F2F2" transform="translate(0,0)"/>
<path d="M0 0 C3.63 0 7.26 0 11 0 C10.01 0.495 10.01 0.495 9 1 C9 1.66 9 2.32 9 3 C8.34 3 7.68 3 7 3 C7 2.34 7 1.68 7 1 C6.34 1 5.68 1 5 1 C5 1.66 5 2.32 5 3 C4.01 3 3.02 3 2 3 C2 3.66 2 4.32 2 5 C3.65 4.67 5.3 4.34 7 4 C6.67 5.32 6.34 6.64 6 8 C5.34 8 4.68 8 4 8 C3.58305004 9.59880813 3.19209144 11.20441261 2.8125 12.8125 C2.59207031 13.70582031 2.37164062 14.59914063 2.14453125 15.51953125 C2.09683594 16.33808594 2.04914063 17.15664063 2 18 C2.47824219 18.45761719 2.95648438 18.91523438 3.44921875 19.38671875 C5 21 5 21 5.1875 24.6875 C5.125625 25.780625 5.06375 26.87375 5 28 C15.04421479 33.39047316 15.04421479 33.39047316 26 33 C26.99 33.66 27.98 34.32 29 35 C29 34.34 29 33.68 29 33 C29.99 33 30.98 33 32 33 C32 33.66 32 34.32 32 35 C32.99 35.495 32.99 35.495 34 36 C22.78 36 11.56 36 0 36 C0 24.12 0 12.24 0 0 Z " fill="#ECECEC" transform="translate(0,0)"/>
<path d="M0 0 C0.66 2.64 1.32 5.28 2 8 C-0.12282669 9.00460531 -2.24833021 10.00355602 -4.375 11 C-6.15003906 11.8353125 -6.15003906 11.8353125 -7.9609375 12.6875 C-11 14 -11 14 -13 14 C-13.66 11.36 -14.32 8.72 -15 6 C-13.06629769 4.99267601 -11.12789694 3.99436712 -9.1875 3 C-8.10855469 2.443125 -7.02960937 1.88625 -5.91796875 1.3125 C-3 0 -3 0 0 0 Z " fill="#EDDFC2" transform="translate(36,10)"/>
<path d="M0 0 C1.58420129 0.62279669 3.16732531 1.24833401 4.75 1.875 C6.07257812 2.39707031 6.07257812 2.39707031 7.421875 2.9296875 C9.6740248 3.8646709 11.83649459 4.87780794 14 6 C13.34 8.64 12.68 11.28 12 14 C7.0276578 12.50829734 2.58154261 10.39542583 -2 8 C-1.125 1.125 -1.125 1.125 0 0 Z " fill="#ECD8B3" transform="translate(5,10)"/>
<path d="M0 0 C0.66 0.33 1.32 0.66 2 1 C1.70683332 3.99030017 1.54785725 5.49443843 0 8 C-3.81067154 10.3942633 -8.40687212 13 -13 13 C-13 9.7 -13 6.4 -13 3 C-12.67 3.66 -12.34 4.32 -12 5 C-10.37457807 4.35522931 -8.74967576 3.70914857 -7.125 3.0625 C-6.22007813 2.70285156 -5.31515625 2.34320312 -4.3828125 1.97265625 C-2.03862333 1.05098738 -2.03862333 1.05098738 0 0 Z " fill="#EAD7B3" transform="translate(34,20)"/>
<path d="M0 0 C2.56353377 0.42725563 4.69344896 0.83714476 7 2.0625 C9.44989787 3.21088963 11.32638335 3.14853426 14 3 C14 5.97 14 8.94 14 12 C9.0276578 10.50829734 4.58154261 8.39542583 0 6 C0 4.02 0 2.04 0 0 Z " fill="#D8B996" transform="translate(5,21)"/>
<path d="M0 0 C0.33 0 0.66 0 1 0 C1.02964844 0.92039062 1.05929688 1.84078125 1.08984375 2.7890625 C1.69176806 6.25972119 1.69176806 6.25972119 4.94140625 7.8984375 C6.13636719 8.38570312 7.33132813 8.87296875 8.5625 9.375 C9.76003906 9.87773437 10.95757812 10.38046875 12.19140625 10.8984375 C13.11824219 11.26195312 14.04507812 11.62546875 15 12 C14.91621094 11.30132812 14.83242188 10.60265625 14.74609375 9.8828125 C14.64425781 8.97273438 14.54242188 8.06265625 14.4375 7.125 C14.33308594 6.22007813 14.22867187 5.31515625 14.12109375 4.3828125 C14 2 14 2 15 0 C15.99 0.33 16.98 0.66 18 1 C17.67 4.63 17.34 8.26 17 12 C19.15737378 11.1538534 21.30077418 10.27201084 23.4375 9.375 C25.22994141 8.64410156 25.22994141 8.64410156 27.05859375 7.8984375 C30.30823194 6.25972119 30.30823194 6.25972119 30.91015625 2.7890625 C30.95462891 1.40847656 30.95462891 1.40847656 31 0 C31.66 0 32.32 0 33 0 C33 2.31 33 4.62 33 7 C30.6333817 8.20739687 28.25909646 9.39054247 25.875 10.5625 C24.87726562 11.07586914 24.87726562 11.07586914 23.859375 11.59960938 C19.49844813 13.71594153 16.81261872 14.50070906 12 13 C9.84150273 12.05204682 7.71469447 11.02878489 5.625 9.9375 C4.56539062 9.38964844 3.50578125 8.84179688 2.4140625 8.27734375 C1.61742187 7.85582031 0.82078125 7.43429688 0 7 C0 4.69 0 2.38 0 0 Z " fill="#35312C" transform="translate(4,21)"/>
<path d="M0 0 C4.23429756 1.31061591 8.07407404 2.94356259 12 5 C9.44918171 7.97595467 6.56565563 9.44002566 3 11 C2.01 11 1.02 11 0 11 C0 7.37 0 3.74 0 0 Z " fill="#DBBD99" transform="translate(21,3)"/>
<path d="M0 0 C0 3.63 0 7.26 0 11 C-5.14808788 9.97038242 -7.62920538 8.65675751 -12 6 C-8.59780735 3.25207517 -4.51535412 0 0 0 Z " fill="#EFE4C8" transform="translate(19,3)"/>
<path d="M0 0 C0.99 0 1.98 0 3 0 C3 7.26 3 14.52 3 22 C2.34 22 1.68 22 1 22 C0 19 0 19 0.5625 16.625 C1.09588996 13.42466023 0.30421263 11.91529882 -1 9 C-1 8.01 -1 7.02 -1 6 C-2.32 5.67 -3.64 5.34 -5 5 C-5 4.34 -5 3.68 -5 3 C-4.34 3 -3.68 3 -3 3 C-3 2.34 -3 1.68 -3 1 C-2.34 1 -1.68 1 -1 1 C-1 1.66 -1 2.32 -1 3 C-0.34 3 0.32 3 1 3 C0.67 2.01 0.34 1.02 0 0 Z " fill="#ECECEC" transform="translate(37,0)"/>
<path d="M0 0 C0.66 0.33 1.32 0.66 2 1 C2.4140625 3.94140625 2.4140625 3.94140625 2.625 7.5625 C2.69976563 8.76003906 2.77453125 9.95757812 2.8515625 11.19140625 C2.90054687 12.11824219 2.94953125 13.04507812 3 14 C2.34 14 1.68 14 1 14 C1 10.04 1 6.08 1 2 C-0.79398267 2.95399078 -2.58511655 3.91334026 -4.375 4.875 C-5.87160156 5.67550781 -5.87160156 5.67550781 -7.3984375 6.4921875 C-11.06466946 8.61706068 -13.4329796 11.01542862 -14.625 15.1875 C-14.74875 15.785625 -14.8725 16.38375 -15 17 C-13.68 17.66 -12.36 18.32 -11 19 C-11.66 19.33 -12.32 19.66 -13 20 C-14.32 19.01 -15.64 18.02 -17 17 C-16.04150166 9.9710122 -16.04150166 9.9710122 -14 7 C-11.66438329 5.56600004 -9.4591531 4.35535082 -7 3.1875 C-6.03707031 2.70120117 -6.03707031 2.70120117 -5.0546875 2.20507812 C-3.4029813 1.39823001 -1.70343441 0.69097646 0 0 Z " fill="#403C36" transform="translate(18,1)"/>
<path d="M0 0 C2.64 0 5.28 0 8 0 C8.33 0.99 8.66 1.98 9 3 C8.34 3 7.68 3 7 3 C7 2.34 7 1.68 7 1 C6.34 1 5.68 1 5 1 C5 1.66 5 2.32 5 3 C4.34 3 3.68 3 3 3 C3 3.66 3 4.32 3 5 C4.32 5.33 5.64 5.66 7 6 C6.67 6.66 6.34 7.32 6 8 C3.36 6.68 0.72 5.36 -2 4 C-1.34 2.68 -0.68 1.36 0 0 Z " fill="#F4F4F4" transform="translate(29,0)"/>
<path d="M0 0 C0 -0.66 0 -1.32 0 -2 C0.99 -2 1.98 -2 3 -2 C3 -1.34 3 -0.68 3 0 C3.66 0.33 4.32 0.66 5 1 C-1.6 1 -8.2 1 -15 1 C-9.41496205 -1.79251897 -5.72359665 -2.86179833 0 0 Z " fill="#E6E6E7" transform="translate(29,35)"/>
<path d="M0 0 C1.39456452 0.00667256 2.78911118 0.01863093 4.18359375 0.03515625 C4.89451172 0.03966797 5.60542969 0.04417969 6.33789062 0.04882812 C8.09899388 0.06064761 9.86005411 0.07858362 11.62109375 0.09765625 C10.63109375 1.41765625 9.64109375 2.73765625 8.62109375 4.09765625 C8.08484375 3.74703125 7.54859375 3.39640625 6.99609375 3.03515625 C3.00090106 1.4581065 -0.4330065 2.78235633 -4.37890625 4.09765625 C-4.37890625 -0.15064195 -4.30393435 0.12439117 0 0 Z " fill="#E7E7E7" transform="translate(17.37890625,-0.09765625)"/>
<path d="M0 0 C0.33 0 0.66 0 1 0 C1.12375 1.2375 1.2475 2.475 1.375 3.75 C1.75746305 6.8762197 2.30549523 9.28879237 4 12 C3.34 12 2.68 12 2 12 C2 11.34 2 10.68 2 10 C1.01 10 0.02 10 -1 10 C-1 10.66 -1 11.32 -1 12 C-1.66 12 -2.32 12 -3 12 C-3 9.69 -3 7.38 -3 5 C-2.34 5 -1.68 5 -1 5 C-0.67 3.35 -0.34 1.7 0 0 Z " fill="#E0E1E1" transform="translate(3,21)"/>
<path d="M0 0 C2.475 0.495 2.475 0.495 5 1 C4.01 1.495 4.01 1.495 3 2 C3 4.31 3 6.62 3 9 C2.67 8.34 2.34 7.68 2 7 C1.34 7 0.68 7 0 7 C0 4.69 0 2.38 0 0 Z " fill="#F6F6F5" transform="translate(0,19)"/>
<path d="M0 0 C0.99 0.33 1.98 0.66 3 1 C3 4.96 3 8.92 3 13 C2.34 13 1.68 13 1 13 C0 10 0 10 0.5 7.625 C1.04778734 4.74911647 0.72280167 2.81089538 0 0 Z " fill="#E6E6E6" transform="translate(37,9)"/>
</svg>
